<svg xmlns="http://www.w3.org/2000/svg" width="18" height="18" viewBox="0 0 18 18">
    <path fill="#FFF" fill-rule="evenodd" d="M16.043 8.376c-.306.31-.738.508-1.215.508-.468 0-.9-.198-1.202-.508a1.67 1.67 0 0 1-.508-1.21c0-.194.031-.374.085-.545l1.085-1.076a1.66 1.66 0 0 1 .54-.094c.477 0 .909.202 1.215.508.31.302.513.734.513 1.206 0 .477-.203.91-.513 1.211zm-6.858.328a.65.65 0 0 0-.203.482v5.247l-1.534 1.273v-6.52a.696.696 0 0 0-.207-.482l-5.166-5.17h12.276l-5.166 5.17zm-7.808-7.33h13.676v1.332H1.377V1.374zm15.25 4a2.384 2.384 0 0 0-1.448-.715l1.044-1.053a.695.695 0 0 0 .202-.486V.681a.687.687 0 0 0-.688-.68H.689A.68.68 0 0 0 0 .681v2.394a.704.704 0 0 0 .203.531l5.863 5.872v7.695h.005c0 .149.05.302.157.428.243.301.67.337.963.099l2.885-2.39a.674.674 0 0 0 .283-.558V9.478l1.953-1.966c.081.562.342 1.066.73 1.449.45.459 1.088.751 1.786.751a2.548 2.548 0 0 0 2.542-2.547c0-.702-.288-1.332-.742-1.79z"/>
</svg>
