<svg xmlns="http://www.w3.org/2000/svg" width="44" height="37" viewBox="0 0 44 37">
        <path d="M37.98 17.288C37.523 7.667 29.2 0 19 0 8.507 0 0 8.114 0 18.123c0 10.01 8.507 18.123 19 18.123 3.637 0 7.035-.974 9.923-2.665a9.585 9.585 0 0 1-1.267-1.499A17.547 17.547 0 0 1 19 34.338c-9.389 0-17-7.26-17-16.215S9.611 1.908 19 1.908c9.053 0 16.453 6.75 16.971 15.261h.498c.514 0 1.019.041 1.511.12z"/>
        <path d="M33.558 29.279l-.032.032 1.349 1.35.032-.033.075.075 1.349-1.35-.075-.074 4.397-4.397-1.35-1.349-4.396 4.397-1.819-1.819-1.349 1.349 1.82 1.819zm-3.201 3.086a7.627 7.627 0 0 1-.004-10.788l.53-.53c2.978-2.978 7.814-2.97 10.788.004a7.627 7.627 0 0 1 .004 10.787l-.53.53c-2.978 2.978-7.814 2.97-10.788-.003zM27.2 20.03c-1.105 0-2-.853-2-1.907s.895-1.908 2-1.908 2 .854 2 1.908c0 1.054-.895 1.908-2 1.908zm-8 0c-1.105 0-2-.853-2-1.907s.895-1.908 2-1.908 2 .854 2 1.908c0 1.054-.895 1.908-2 1.908zm-8 0c-1.105 0-2-.853-2-1.907s.895-1.908 2-1.908 2 .854 2 1.908c0 1.054-.895 1.908-2 1.908z"/>
</svg>
