<svg xmlns="http://www.w3.org/2000/svg" width="44" height="38" viewBox="0 0 44 38">
        <path d="M37.982 17.882C37.548 7.934 29.216 0 19 0 8.507 0 0 8.372 0 18.698c0 10.327 8.507 18.699 19 18.699 3.661 0 7.08-1.02 9.98-2.785a9.89 9.89 0 0 1-1.286-1.534A17.128 17.128 0 0 1 19 35.428c-9.389 0-17-7.49-17-16.73s7.611-16.73 17-16.73c9.053 0 16.453 6.965 16.971 15.746h.19c.622 0 1.231.058 1.821.168z"/>
        <path d="M33.539 30.15l-.012.011 1.392 1.392.011-.011.026.025 1.392-1.391-.026-.026 4.375-4.375-1.391-1.392-4.376 4.375-1.825-1.825-1.391 1.392 1.825 1.825zm-3.182 3.062c-3.075-3.074-3.07-8.064.007-11.14l.166-.166c3.078-3.079 8.072-3.076 11.14-.007 3.075 3.074 3.07 8.064-.006 11.14l-.166.166c-3.079 3.079-8.073 3.076-11.141.007zM26 12.99v12.59c0 .548-.45.991-1.007.991H13.007a.998.998 0 0 1-1.007-.99V12.99h-1.925C9.481 12.99 9 12.51 9 11.907c0-.598.494-1.083 1.075-1.083h17.85c.594 0 1.075.48 1.075 1.083 0 .598-.494 1.082-1.075 1.082H26zm-2 0H14v11.613h10V12.99zm-8 2.756a.98.98 0 0 1 .99-.984h4.02a.985.985 0 1 1 0 1.968h-4.02a.985.985 0 0 1-.99-.984zm0 3.937a.98.98 0 0 1 .99-.985h4.02a.985.985 0 1 1 0 1.969h-4.02a.985.985 0 0 1-.99-.984z"/>
</svg>
