<svg xmlns="http://www.w3.org/2000/svg" width="45" height="38" viewBox="0 0 45 38">
        <path d="M38.748 17.876C38.151 7.764 29.673-.164 19.45.014 8.96.197.602 8.85.785 19.342c.183 10.492 8.837 18.849 19.329 18.666a18.911 18.911 0 0 0 9.959-3.022c-.49-.463-.935-.976-1.324-1.53a16.921 16.921 0 0 1-8.67 2.552c-9.388.164-17.13-7.313-17.294-16.7-.164-9.388 7.313-17.13 16.7-17.295 9.052-.158 16.575 6.789 17.248 15.702a10.21 10.21 0 0 1 2.015.161z"/>
        <path d="M16.112 23.858l-.768-.755 5.934-6.09.784.767-5.95 6.078zM27.237 11.57a2.293 2.293 0 0 0-1.653-.663c-.66.012-1.24.284-1.66.716l-1.769 1.855a1.001 1.001 0 0 0-1.207.189l-.786.824c-.179.188-.287.445-.282.727.004.28.12.533.304.714L15 21.4c-.726.76-1.067 1.325-1.179 1.947-.046.262-.074.42-.71 1.086-.146.153-.189.434-.187.546.002.112.055.39.207.539l.833.813c.164.16.452.192.54.19.087-.001.374-.043.532-.209.679-.71.93-.813 1.148-.86.487-.108.928-.261 1.78-1.155l5.198-5.451a1.018 1.018 0 0 0 1.44-.014l.786-.825a1.026 1.026 0 0 0 .142-1.231l1.773-1.853c.412-.431.66-1.022.65-1.67a2.387 2.387 0 0 0-.716-1.682zm-2.547 1.26a.997.997 0 0 1 1.413-.025.997.997 0 0 1 .025 1.414l-1.39 1.44-1.438-1.39 1.39-1.44zM35.9 28.923l-1.86-1.796-1.39 1.439 2.58 2.49.72.695 5.676-5.878-1.439-1.39-4.287 4.44zm-4.507 4.544c-3.178-3.07-3.26-8.14-.198-11.312 3.07-3.178 8.14-3.26 11.312-.197 3.179 3.069 3.26 8.14.198 11.312-3.07 3.178-8.14 3.26-11.312.197z"/>
</svg>
