<svg xmlns="http://www.w3.org/2000/svg" width="44" height="38" viewBox="0 0 44 38">
        <path d="M37.983 18.197A10.05 10.05 0 0 0 35.971 18C35.453 9.077 28.053 2 19 2 9.611 2 2 9.611 2 19s7.611 17 17 17c3.185 0 6.165-.876 8.714-2.4.38.56.814 1.08 1.296 1.552A18.911 18.911 0 0 1 19 38C8.507 38 0 29.493 0 19S8.507 0 19 0c10.224 0 18.562 8.076 18.983 18.197zm-23.2 2.704a2.605 2.605 0 0 1-2.603 2.603 2.624 2.624 0 0 1-2.614-2.614 2.605 2.605 0 0 1 3.613-2.4l4.038-4.937a1.767 1.767 0 0 1-.213-.842c0-1.032.83-1.862 1.863-1.862A1.858 1.858 0 0 1 20 14.181l1.963 7.853c.079 0 .157.012.236.023l1.985-4.376a1.84 1.84 0 0 1-.482-1.234c0-1.032.83-1.862 1.862-1.862s1.863.83 1.863 1.862-.83 1.863-1.885 1.863l-1.986 4.375c.55.471.898 1.167.898 1.952a2.605 2.605 0 0 1-2.603 2.603 2.605 2.605 0 0 1-2.603-2.603c0-.954.516-1.784 1.279-2.232l-1.963-7.854a1.175 1.175 0 0 1-.191-.045l-4.039 4.937c.28.415.449.92.449 1.458z"/>
        <path d="M34.943 29.192l-1.829-1.828-1.414 1.414 2.536 2.536.707.707 5.778-5.778-1.414-1.415-4.364 4.364zm-4.586 4.465c-3.124-3.124-3.118-8.196 0-11.314 3.124-3.124 8.196-3.118 11.314 0 3.124 3.124 3.117 8.196 0 11.314-3.125 3.124-8.196 3.118-11.314 0z"/>
</svg>
