<svg xmlns="http://www.w3.org/2000/svg" width="44" height="38" viewBox="0 0 44 38">
    <g fill="none" fill-rule="evenodd">
        <path fill="#BECBFF" d="M37.982 17.882C37.548 7.934 29.216 0 19 0 8.507 0 0 8.372 0 18.698c0 10.327 8.507 18.699 19 18.699 3.661 0 7.08-1.02 9.98-2.785a9.89 9.89 0 0 1-1.286-1.534A17.128 17.128 0 0 1 19 35.428c-9.389 0-17-7.49-17-16.73s7.611-16.73 17-16.73c9.053 0 16.453 6.965 16.971 15.746h.19c.622 0 1.231.058 1.821.168z"/>
        <ellipse cx="17.661" cy="17.311" stroke="#BECBFF" stroke-width="2" rx="6.379" ry="6.278"/>
        <path stroke="#BECBFF" stroke-linecap="round" stroke-linejoin="round" stroke-width="2" d="M18.962 19.947a2.965 2.965 0 0 0 1.398-1.398m-2.699-4.168c-1.644 0-2.977 1.312-2.977 2.93"/>
        <path fill="#BECBFF" d="M22.07 22.332a1.022 1.022 0 0 1 .006-1.465 1.07 1.07 0 0 1 1.489-.007l3.005 2.957c.41.403.41 1.056-.007 1.465a1.07 1.07 0 0 1-1.489.007M33.539 30.15l-.012.011 1.392 1.392.011-.011.026.025 1.392-1.391-.026-.026 4.375-4.375-1.391-1.392-4.376 4.375-1.825-1.825-1.391 1.392 1.825 1.825zm-3.182 3.062c-3.075-3.074-3.07-8.064.007-11.14l.166-.166c3.078-3.079 8.072-3.076 11.14-.007 3.075 3.074 3.07 8.064-.006 11.14l-.166.166c-3.079 3.079-8.073 3.076-11.141.007z"/>
    </g>
</svg>
