<svg xmlns="http://www.w3.org/2000/svg" width="16" height="18" viewBox="0 0 16 18">
    <path fill="#FFF" fill-rule="evenodd" d="M13.566 5.238l-3.177-3.164V4.5c0 .202.085.373.202.504l.018.027c.13.14.324.207.522.207h2.435zM9.57 1.372H1.843a.601.601 0 0 0-.337.131.524.524 0 0 0-.13.337V16.03c0 .13.053.247.13.324a.49.49 0 0 0 .337.144H13.8c.13 0 .238-.054.328-.144a.415.415 0 0 0 .135-.324V6.066h-3.132c-.423 0-.819-.171-1.098-.45l-.027-.032A1.554 1.554 0 0 1 9.57 4.5V1.372zM1.843 0h8.14c.18 0 .36.076.482.202l4.973 4.977a.65.65 0 0 1 .202.477V16.03c0 .504-.211.967-.54 1.3l-.004.01-.014.008a1.837 1.837 0 0 1-1.282.522H1.843c-.508 0-.963-.198-1.3-.53v-.01.01a1.883 1.883 0 0 1-.545-1.31V1.84c0-.508.212-.967.545-1.296A1.826 1.826 0 0 1 1.843 0z"/>
</svg>
