<svg xmlns="http://www.w3.org/2000/svg" width="44" height="39" viewBox="0 0 44 39">
        <path d="M37.983 18.697C37.563 8.576 29.224.5 19 .5 8.507.5 0 9.007 0 19.5s8.507 19 19 19c3.674 0 7.104-1.043 10.01-2.848a10.049 10.049 0 0 1-1.296-1.552A16.921 16.921 0 0 1 19 36.5c-9.389 0-17-7.611-17-17s7.611-17 17-17c9.053 0 16.453 7.077 16.971 16a10.21 10.21 0 0 1 2.012.197z"/>
        <path d="M34.943 29.692l-1.829-1.828-1.414 1.414 2.536 2.536.707.707 5.778-5.778-1.414-1.415-4.364 4.364zm-4.586 4.465c-3.124-3.124-3.118-8.196 0-11.314 3.124-3.124 8.196-3.118 11.314 0 3.124 3.124 3.117 8.196 0 11.314-3.125 3.124-8.196 3.118-11.314 0zM21.887 16.6v-6.21a6.21 6.21 0 0 1 6.21 6.21h-6.21zm1.455-4.553v3.006h3.005a3.684 3.684 0 0 0-1.028-1.977 3.683 3.683 0 0 0-1.977-1.029zm-10.798 7.43a6.427 6.427 0 0 1 5.87-6.402v6.96h6.959a6.425 6.425 0 0 1-6.4 5.87 6.43 6.43 0 0 1-6.429-6.429zm14.441.023l-.015.592a8.002 8.002 0 0 1-9.522 7.262c-2.904-.545-5.75-3.388-6.3-6.29a8.001 8.001 0 0 1 7.26-9.533l.61-.016V11.5h.8v7.2H27v.8h-.015z"/>
</svg>
