<svg xmlns="http://www.w3.org/2000/svg" width="44" height="39" viewBox="0 0 44 39">
        <path d="M37.983 18.697C37.563 8.576 29.224.5 19 .5 8.507.5 0 9.007 0 19.5s8.507 19 19 19c3.674 0 7.104-1.043 10.01-2.848a10.049 10.049 0 0 1-1.296-1.552A16.921 16.921 0 0 1 19 36.5c-9.389 0-17-7.611-17-17s7.611-17 17-17c9.053 0 16.453 7.077 16.971 16a10.21 10.21 0 0 1 2.012.197z"/>
        <path d="M34.943 29.692l-1.829-1.828-1.414 1.414 2.536 2.536.707.707 5.778-5.778-1.414-1.415-4.364 4.364zm-4.586 4.465c-3.124-3.124-3.118-8.196 0-11.314 3.124-3.124 8.196-3.118 11.314 0 3.124 3.124 3.117 8.196 0 11.314-3.125 3.124-8.196 3.118-11.314 0zM19.337 17.998a4.299 4.299 0 0 1 3.922-2.498c2.373 0 4.296 1.887 4.296 4.217 0 2.33-1.922 4.218-4.294 4.218a4.3 4.3 0 0 1-3.924-2.498 4.298 4.298 0 0 1-3.923 2.498c-2.372 0-4.295-1.888-4.295-4.218s1.923-4.217 4.295-4.217a4.299 4.299 0 0 1 3.923 2.498zm3.922 4.2c1.397 0 2.529-1.11 2.529-2.48 0-1.37-1.132-2.482-2.527-2.482-1.397 0-2.528 1.111-2.528 2.481 0 1.37 1.131 2.482 2.526 2.482zm-7.845 0c1.396 0 2.528-1.11 2.528-2.48 0-1.37-1.132-2.482-2.528-2.482-1.396 0-2.527 1.111-2.527 2.481 0 1.37 1.13 2.482 2.527 2.482z"/>
</svg>
