<svg xmlns="http://www.w3.org/2000/svg" width="44" height="38" viewBox="0 0 44 38">
        <path d="M37.982 17.882C37.548 7.934 29.216 0 19 0 8.507 0 0 8.372 0 18.698c0 10.327 8.507 18.699 19 18.699 3.661 0 7.08-1.02 9.98-2.785a9.89 9.89 0 0 1-1.286-1.534A17.128 17.128 0 0 1 19 35.428c-9.389 0-17-7.49-17-16.73s7.611-16.73 17-16.73c9.053 0 16.453 6.965 16.971 15.746h.19c.622 0 1.231.058 1.821.168z"/>
        <path d="M33.539 30.15l-.012.011 1.392 1.392.011-.011.026.025 1.392-1.391-.026-.026 4.375-4.375-1.391-1.392-4.376 4.375-1.825-1.825-1.391 1.392 1.825 1.825zm-3.182 3.062c-3.075-3.074-3.07-8.064.007-11.14l.166-.166c3.078-3.079 8.072-3.076 11.14-.007 3.075 3.074 3.07 8.064-.006 11.14l-.166.166c-3.079 3.079-8.073 3.076-11.141.007zM18.847 15.994c0-.392.4-.785.799-.785h1.197l-4.524-4.453-4.524 4.453h1.197c.4 0 .799.393.799.785v5.763c0 .393-.4.785-.799.785-.4 0-.798-.392-.798-.785V16.78H9.798c-.399 0-.798-.393-.798-.786 0-.261.133-.392.266-.523l6.52-6.417c.267-.262.8-.262 1.198 0l6.52 6.417c.267.262.267.785 0 1.178-.132.131-.398.262-.531.262h-2.529v4.846c0 .393-.399.785-.798.785h-1.198l4.525 4.453 4.524-4.453h-1.198c-.399 0-.798-.392-.798-.785v-5.763c0-.392.4-.785.798-.785.4 0 .799.393.799.785v4.846h2.395c.266 0 .4.13.532.262.267.262.267.786 0 1.179l-6.52 6.417c-.266.261-.799.261-1.198 0l-6.52-6.417c0-.131-.133-.393-.133-.524 0-.393.399-.786.798-.786h2.395v-4.977z"/>
</svg>
