<svg xmlns="http://www.w3.org/2000/svg" width="16" height="18" viewBox="0 0 16 18">
    <path fill="#FFF" fill-rule="evenodd" d="M3.884 10.773a.415.415 0 0 1-.42-.405c0-.225.191-.419.42-.419h8.114c.233 0 .434.194.434.419 0 .225-.2.405-.434.405H3.884zm0-2.903a.416.416 0 0 1-.42-.414c0-.225.191-.414.42-.414h8.114c.233 0 .434.19.434.414a.425.425 0 0 1-.434.414H3.884zm9.897-2.623l-3.227-3.173V4.51c0 .189.086.373.205.504l.019.018c.132.135.329.216.53.216h2.473zm-4.06-3.875H1.873a.482.482 0 0 0-.475.468V16.03c0 .126.055.243.137.333H1.53a.536.536 0 0 0 .342.135H14.02a.448.448 0 0 0 .333-.135.458.458 0 0 0 .138-.333V6.075h-3.182c-.43 0-.832-.171-1.116-.459l-.027-.032a1.552 1.552 0 0 1-.443-1.075V1.372zM1.873 0h8.27c.183 0 .366.081.49.202l5.05 4.968c.138.149.206.32.206.5v10.359c0 .504-.214.958-.548 1.305h-.005l-.013.004c-.339.329-.8.536-1.303.536H1.872c-.516 0-.978-.207-1.32-.54a1.841 1.841 0 0 1-.554-1.305V1.84c0-.499.215-.958.553-1.291A1.874 1.874 0 0 1 1.872 0zm2.012 13.68a.422.422 0 0 1-.42-.414c0-.225.191-.414.42-.414h8.114c.233 0 .434.189.434.414 0 .225-.2.414-.434.414H3.884z"/>
</svg>
