<?xml version="1.0" encoding="UTF-8"?>
<svg width="19px" height="17px" viewBox="0 0 19 17" version="1.1" xmlns="http://www.w3.org/2000/svg" xmlns:xlink="http://www.w3.org/1999/xlink">
    <!-- Generator: sketchtool 39.1 (31720) - http://www.bohemiancoding.com/sketch -->
    <title>D7839CA1-2E3F-4ABA-8FDC-E412F8D2F5E0</title>
    <desc>Created with sketchtool.</desc>
    <defs></defs>
    <g id="Page-1" stroke="none" stroke-width="1" fill="none" fill-rule="evenodd">
        <g id="导航收起" transform="translate(-15.000000, -337.000000)" fill="#5C7DFE">
            <g id="Group" transform="translate(0.000000, 70.000000)">
                <g id="库存管理" transform="translate(0.000000, 250.000000)">
                    <path d="M17.9139333,24.8536003 L17.9139333,24.8536003 L22.5413933,27.1368865 L23.9577023,24.6311478 L17.9692246,21.6763068 L16.5486624,24.1736511 L17.8076038,24.7990365 C17.8458824,24.8158253 17.884161,24.8326142 17.9139333,24.8536003 L17.9139333,24.8536003 Z M31.034994,21.6679124 L31.034994,21.6679124 L25.0337568,24.6311478 L26.454319,27.1368865 L32.4555562,24.1736511 L31.034994,21.6679124 Z M24.8848955,25.9532712 L24.8848955,25.9532712 L24.8848955,32.1189834 L30.7755501,29.214509 L30.7755501,25.8567352 L26.4925976,27.9721327 L26.4840913,27.9805272 C26.2926982,28.0812604 26.0587733,28.0141049 25.9481906,27.8252301 L24.8848955,25.9532712 Z M24.8848955,18.5409855 L24.8848955,18.5409855 L24.8848955,23.8462682 L30.2609153,21.1978241 L24.8848955,18.5409855 Z M24.1108167,23.8462682 L24.1108167,23.8462682 L24.1108167,18.5409855 L18.7305438,21.1978241 L24.1108167,23.8462682 Z M24.1108167,32.1189834 L24.1108167,32.1189834 L24.1108167,25.9448768 L23.0432685,27.8252301 C22.9326858,28.0141049 22.6945078,28.0812604 22.511621,27.9805272 L22.511621,27.9721327 L18.2201622,25.8609324 L18.2201622,29.214509 L24.1108167,32.1189834 Z M31.7112497,20.4800999 C31.8303387,20.5430582 31.9239087,20.6311997 31.9877064,20.731933 L33.914397,24.1358762 C34.0972838,24.4380758 33.9739415,24.8326142 33.6719657,24.9963057 C33.6421935,25.0172918 33.6166744,25.0340806 33.5954085,25.0424751 L32.07277,25.7895798 L32.07277,29.6090475 C32.07277,29.8776694 31.9026428,30.1127135 31.6602115,30.2050523 L24.7870724,33.5964039 C24.5999325,33.6887426 24.3872735,33.6803482 24.2086399,33.5964039 L17.2844626,30.179869 C17.0632972,30.0623469 16.9271955,29.8440916 16.9271955,29.6090475 L16.9229423,25.7895798 L15.3535188,25.0172918 C15.0345303,24.8577975 14.9069349,24.480048 15.0728089,24.1610595 L17.0037527,20.731933 C17.0845631,20.6102137 17.199399,20.5094804 17.3227412,20.4591138 L24.2086399,17.0677623 C24.3957798,16.9712263 24.6084388,16.9838179 24.7870724,17.0677623 L31.7112497,20.4800999 Z" id="icon_inventory"></path>
                </g>
            </g>
        </g>
    </g>
</svg>