<?xml version="1.0" encoding="UTF-8"?>
<svg width="14px" height="14px" viewBox="0 0 14 14" version="1.1" xmlns="http://www.w3.org/2000/svg" xmlns:xlink="http://www.w3.org/1999/xlink">
    <!-- Generator: sketchtool 43.1 (39012) - http://www.bohemiancoding.com/sketch -->
    <title>51ACD494-950F-4059-97A4-C4009A889BDF</title>
    <desc>Created with sketchtool.</desc>
    <defs></defs>
    <g id="Page-1" stroke="none" stroke-width="1" fill="none" fill-rule="evenodd">
        <g id="原始样本" transform="translate(-662.000000, -885.000000)" fill="#FFFFFF">
            <g id="3-copy" transform="translate(77.000000, 169.000000)">
                <g id="典型表单">
                    <g id="样本清单" transform="translate(33.000000, 650.000000)">
                        <g id="btn_xjyb" transform="translate(524.000000, 54.000000)">
                            <g id="icon_新建样本" transform="translate(28.000000, 12.000000)">
                                <path d="M11.5052,1.0647 L11.5052,1.0647 L2.3947,1.0647 C1.6667,1.0647 1.0647,1.6597 1.0647,2.3877 L1.0647,11.5052 C1.0647,12.2332 1.6667,12.8317 2.3947,12.8317 L11.5052,12.8317 C12.2262,12.8317 12.8317,12.2332 12.8317,11.5052 L12.8317,2.3877 C12.8317,1.6597 12.2332,1.0647 11.5052,1.0647 L11.5052,1.0647 Z M2.3947,0.0007 L2.3947,0.0007 L11.5052,0.0007 C12.8177,0.0007 13.8992,1.0822 13.8992,2.3877 L13.8992,11.5052 C13.8992,12.8177 12.8142,13.8992 11.5052,13.8992 L2.3947,13.8992 C1.0787,13.8992 0.000700000001,12.8177 0.000700000001,11.5052 L0.000700000001,2.3877 C0.000700000001,1.0822 1.0787,0.0007 2.3947,0.0007 L2.3947,0.0007 Z M4.8237,4.3232 L4.8237,4.3232 L4.8237,5.2787 C4.8237,5.4572 4.6802,5.6042 4.4947,5.6042 C4.3162,5.6042 4.1727,5.4572 4.1727,5.2787 L4.1727,4.3232 L3.5882,4.3232 L3.5882,8.1172 L4.9707,8.1172 L4.9882,8.1172 C5.2857,8.1172 5.5167,8.3622 5.5167,8.6527 L5.5167,9.5802 L8.3692,9.5802 L8.3692,8.6597 L8.3692,8.6527 C8.3692,8.3622 8.6107,8.1172 8.9082,8.1172 L10.3047,8.1172 L10.3047,4.3232 L9.7167,4.3232 L9.7167,5.2787 C9.7167,5.4572 9.5767,5.6042 9.3947,5.6042 C9.2232,5.6042 9.0762,5.4572 9.0762,5.2787 L9.0762,4.3232 L8.4952,4.3232 L8.4952,5.2787 C8.4952,5.4572 8.3517,5.6042 8.1732,5.6042 C7.9982,5.6042 7.8477,5.4572 7.8477,5.2787 L7.8477,4.3232 L7.2702,4.3232 L7.2702,5.2787 C7.2702,5.4572 7.1267,5.6042 6.9447,5.6042 C6.7697,5.6042 6.6227,5.4572 6.6227,5.2787 L6.6227,4.3232 L6.0417,4.3232 L6.0417,5.2787 C6.0417,5.4572 5.8947,5.6042 5.7232,5.6042 C5.5517,5.6042 5.4012,5.4572 5.4012,5.2787 L5.4012,4.3232 L4.8237,4.3232 Z M3.0597,3.2522 L3.0702,3.2522 L10.8367,3.2522 C11.1342,3.2522 11.3757,3.4867 11.3757,3.7842 L11.3757,3.7982 L11.3757,8.6527 C11.3757,8.9502 11.1342,9.1882 10.8367,9.1882 L10.8192,9.1882 L9.4402,9.1882 L9.4402,10.1087 C9.4402,10.4062 9.2057,10.6442 8.9082,10.6442 L8.8907,10.6442 L4.9882,10.6442 C4.6907,10.6442 4.4457,10.4062 4.4457,10.1087 L4.4457,10.0982 L4.4457,9.1882 L3.0597,9.1882 C2.7692,9.1882 2.5207,8.9502 2.5207,8.6527 L2.5207,8.6422 L2.5207,3.7842 C2.5207,3.4867 2.7692,3.2522 3.0597,3.2522 L3.0597,3.2522 Z" id="icon_xjyb"></path>
                            </g>
                        </g>
                    </g>
                </g>
            </g>
        </g>
    </g>
</svg>