<?xml version="1.0" encoding="UTF-8"?>
<svg width="15px" height="15px" viewBox="0 0 15 15" version="1.1" xmlns="http://www.w3.org/2000/svg" xmlns:xlink="http://www.w3.org/1999/xlink">
    <!-- Generator: sketchtool 39.1 (31720) - http://www.bohemiancoding.com/sketch -->
    <title>0B25EDAD-B42F-43DB-969F-2C12722742A3</title>
    <desc>Created with sketchtool.</desc>
    <defs></defs>
    <g id="Page-1" stroke="none" stroke-width="1" fill="none" fill-rule="evenodd">
        <g id="导航收起" transform="translate(-18.000000, -538.000000)" fill="#5C7DFE">
            <g id="Group" transform="translate(0.000000, 70.000000)">
                <g id="质量控制" transform="translate(0.000000, 450.000000)">
                    <path d="M25.33125,32.83125 L25.33125,32.83125 C25.1775,32.91 24.99,32.9175 24.8175,32.83125 C20.5275,30.76875 18,26.09625 18,21.4125 C18,21.31125 18.00375,21.165 18.0075,20.985 C18.015,20.83125 18.0225,20.6925 18.02625,20.57625 C18.03375,20.3025 18.25125,20.055 18.53625,20.02125 C19.26,19.93875 19.815,19.31625 19.8225,18.5925 L19.8225,18.57375 C19.8225,18.25875 20.07375,18 20.3925,18 L29.73375,18 L29.7525,18 C30.0675,18 30.3225,18.25875 30.3225,18.57375 C30.3225,19.3125 30.87375,19.935 31.605,20.02125 C31.875,20.055 32.0925,20.27625 32.115,20.5575 C32.12625,20.6775 32.12625,20.82375 32.13,20.985 C32.14125,21.165 32.14125,21.31125 32.14125,21.4125 C32.14125,26.0925 29.62125,30.765 25.33125,32.83125 M25.0725,31.6875 L25.0725,31.6875 C28.83375,29.745 30.99375,25.57125 30.99375,21.4125 L30.99,21.05625 C30.1125,20.775 29.44125,20.04375 29.23875,19.1475 L20.9025,19.1475 C20.7,20.04 20.025,20.775 19.155,21.05625 L19.1475,21.4125 C19.1475,25.57125 21.3075,29.745 25.0725,31.6875 M27.8175,26.4975 L27.8175,26.4975 C27.19125,27.66375 26.3475,28.7025 25.2825,29.5125 L25.2825,29.51625 C25.1625,29.61375 24.99,29.6175 24.8625,29.51625 C23.80125,28.70625 22.95,27.66375 22.32,26.4975 C21.675,25.28625 21.27,23.9325 21.12,22.56375 C21.105,22.4475 21.13875,22.32375 21.23625,22.245 C21.375,22.12875 21.51,21.9975 21.62625,21.87 L21.63375,21.86625 C21.75375,21.7425 21.87,21.6 21.975,21.4575 C22.035,21.3675 22.14375,21.3075 22.26,21.3075 L27.88125,21.3075 C27.98625,21.3075 28.095,21.35625 28.15875,21.45 C28.2675,21.5925 28.3875,21.7425 28.5075,21.86625 L28.515,21.86625 C28.63125,21.9975 28.76625,22.1175 28.90875,22.245 C28.9875,22.30875 29.03625,22.4325 29.025,22.545 C28.8825,23.9175 28.46625,25.27875 27.8175,26.4975 M25.0725,28.81125 L25.0725,28.81125 C25.95,28.095 26.67,27.17625 27.21375,26.175 C27.8025,25.08375 28.17,23.86875 28.32,22.6425 C28.215,22.545 28.11,22.4475 28.0125,22.335 L28.005,22.32375 C27.9075,22.21125 27.81,22.10625 27.72,21.9975 L22.425,21.9975 C22.33125,22.10625 22.23375,22.2225 22.1325,22.335 C22.03125,22.4475 21.92625,22.545 21.82125,22.6425 C21.9675,23.86875 22.35,25.08375 22.935,26.17125 C23.46375,27.17625 24.19125,28.095 25.0725,28.81125 M29.1675,20.34 L29.1675,20.34 C29.4825,20.34 29.73375,20.59875 29.73375,20.91375 C29.73375,21.22875 29.4825,21.4875 29.1675,21.4875 C28.845,21.4875 28.59,21.22875 28.59,20.91375 C28.59,20.59875 28.845,20.34 29.1675,20.34 M20.95125,20.34 L20.95125,20.34 C21.27,20.34 21.525,20.59875 21.525,20.91375 C21.525,21.22875 21.27,21.4875 20.95125,21.4875 C20.63625,21.4875 20.3775,21.22875 20.3775,20.91375 C20.3775,20.59875 20.63625,20.34 20.95125,20.34 M25.0725,29.7225 C25.3875,29.7225 25.6425,29.985 25.6425,30.29625 C25.6425,30.6225 25.3875,30.87375 25.0725,30.87375 C24.75375,30.87375 24.5025,30.6225 24.5025,30.29625 C24.5025,29.985 24.75375,29.7225 25.0725,29.7225" id="icon_quality"></path>
                </g>
            </g>
        </g>
    </g>
</svg>