<?xml version="1.0" encoding="UTF-8"?>
<svg width="14px" height="14px" viewBox="0 0 14 14" version="1.1" xmlns="http://www.w3.org/2000/svg" xmlns:xlink="http://www.w3.org/1999/xlink">
    <!-- Generator: sketchtool 43.1 (39012) - http://www.bohemiancoding.com/sketch -->
    <title>251E5CD3-06A4-4783-91BC-68C42196E6FE</title>
    <desc>Created with sketchtool.</desc>
    <defs></defs>
    <g id="Page-1" stroke="none" stroke-width="1" fill="none" fill-rule="evenodd">
        <g id="原始样本" transform="translate(-962.000000, -885.000000)" fill="#2F3445">
            <g id="3-copy" transform="translate(77.000000, 169.000000)">
                <g id="典型表单">
                    <g id="样本清单" transform="translate(33.000000, 650.000000)">
                        <g id="btn_dcmb" transform="translate(824.000000, 54.000000)">
                            <g id="icon_download" transform="translate(28.000000, 12.000000)">
                                <path d="M12.52685,8.958215 L12.52685,8.958215 L1.36885,8.958215 C1.28835,8.958215 1.21135,9.000215 1.15535,9.045715 C1.10635,9.101715 1.06785,9.178715 1.06785,9.266215 L1.06785,12.608715 C1.06785,12.689215 1.10635,12.773215 1.15535,12.829215 C1.21135,12.881715 1.28835,12.920215 1.36885,12.920215 L12.52685,12.920215 C12.60385,12.920215 12.68785,12.881715 12.74035,12.829215 C12.79635,12.773215 12.83135,12.689215 12.83135,12.608715 L12.83135,9.266215 C12.83135,9.178715 12.79635,9.101715 12.74035,9.045715 C12.68785,9.000215 12.60385,8.958215 12.52685,8.958215 L12.52685,8.958215 Z M1.36885,7.890715 L1.36885,7.890715 L12.52685,7.890715 C12.90485,7.890715 13.24785,8.041215 13.49285,8.296715 C13.75185,8.545215 13.89885,8.877715 13.89885,9.266215 L13.89885,12.608715 C13.89885,12.993715 13.75185,13.329715 13.49285,13.581715 C13.24785,13.837215 12.90485,13.987715 12.52685,13.987715 L1.36885,13.987715 C0.99085,13.987715 0.64785,13.837215 0.39935,13.581715 C0.15435,13.329715 0.00035,12.993715 0.00035,12.608715 L0.00035,9.266215 C0.00035,8.877715 0.15435,8.545215 0.39935,8.296715 C0.64785,8.041215 0.99085,7.890715 1.36885,7.890715 L1.36885,7.890715 Z M2.34885,12.031215 L2.34885,12.031215 C2.17385,12.031215 2.02685,11.887715 2.02685,11.712715 C2.02685,11.537715 2.17385,11.390715 2.34885,11.390715 L11.55035,11.390715 C11.72885,11.390715 11.86885,11.537715 11.86885,11.712715 C11.86885,11.887715 11.72885,12.031215 11.55035,12.031215 L2.34885,12.031215 Z M11.33335,9.854215 L11.33335,9.854215 C11.63085,9.854215 11.86885,10.099215 11.86885,10.389715 C11.86885,10.687215 11.63085,10.921715 11.33335,10.921715 C11.03585,10.921715 10.79785,10.687215 10.79785,10.389715 C10.79785,10.099215 11.03585,9.854215 11.33335,9.854215 L11.33335,9.854215 Z M6.41235,0.533715 C6.41235,0.239715 6.65735,-0.001785 6.94785,-0.001785 C7.24535,-0.001785 7.48685,0.239715 7.48685,0.533715 L7.48685,5.055715 L8.96385,3.578715 C9.17385,3.368715 9.51335,3.368715 9.72685,3.578715 C9.93335,3.781715 9.93335,4.124715 9.72685,4.334715 L7.32935,6.728715 L7.31885,6.739215 L7.31535,6.742715 C7.09485,6.931715 6.80785,6.931715 6.58385,6.742715 L6.57685,6.739215 L6.57335,6.728715 L6.56635,6.721715 L4.17585,4.334715 C3.96585,4.124715 3.96585,3.781715 4.17585,3.578715 C4.38235,3.368715 4.72535,3.368715 4.93535,3.578715 L6.41235,5.055715 L6.41235,0.533715 Z"></path>
                            </g>
                        </g>
                    </g>
                </g>
            </g>
        </g>
    </g>
</svg>