<?xml version="1.0" encoding="UTF-8"?>
<svg width="15px" height="15px" viewBox="0 0 15 15" version="1.1" xmlns="http://www.w3.org/2000/svg" xmlns:xlink="http://www.w3.org/1999/xlink">
    <!-- Generator: sketchtool 39.1 (31720) - http://www.bohemiancoding.com/sketch -->
    <title>A5405824-0BD0-45BD-8BBE-5920F646957C</title>
    <desc>Created with sketchtool.</desc>
    <defs></defs>
    <g id="Page-1" stroke="none" stroke-width="1" fill="none" fill-rule="evenodd">
        <g id="导航收起" transform="translate(-18.000000, -488.000000)" fill="#5C7DFE">
            <g id="Group" transform="translate(0.000000, 70.000000)">
                <g id="统计报告" transform="translate(0.000000, 400.000000)">
                    <path d="M20.79375,29.65875 L20.79375,29.65875 L19.1475,29.65875 L19.1475,31.7325 L20.79375,31.7325 L20.79375,29.65875 Z M18.5775,28.515 L18.5775,28.515 L18.585,28.515 L21.36375,28.515 C21.67875,28.515 21.9375,28.77 21.9375,29.0925 L21.9375,29.1075 L21.9375,32.31 C21.9375,32.625 21.67875,32.87625 21.36375,32.87625 L21.345,32.87625 L18.5775,32.87625 C18.25125,32.87625 18,32.625 18,32.31 L18,32.29125 L18,29.0925 C18,28.77 18.25125,28.515 18.5775,28.515 L18.5775,28.515 Z M26.26125,24.40125 L26.26125,24.40125 L19.1475,24.40125 L19.1475,26.475 L26.26125,26.475 L26.26125,24.40125 Z M18.5775,23.25375 L18.5775,23.25375 L18.585,23.25375 L26.83875,23.25375 C27.1575,23.25375 27.40875,23.50875 27.40875,23.82375 L27.40875,23.8425 L27.40875,27.0525 C27.40875,27.36375 27.1575,27.61125 26.83875,27.61125 L26.82375,27.61125 L18.5775,27.61125 C18.25125,27.61125 18,27.36375 18,27.0525 L18,27.02625 L18,23.82375 C18,23.50875 18.25125,23.25375 18.5775,23.25375 L18.5775,23.25375 Z M31.74,19.14375 L31.74,19.14375 L19.1475,19.14375 L19.1475,21.2175 L31.74,21.2175 L31.74,19.14375 Z M18.5775,18 L18.585,18 L32.31,18 C32.625,18 32.87625,18.25125 32.87625,18.56625 L32.87625,18.585 L32.87625,21.78375 C32.87625,22.09875 32.625,22.35375 32.31,22.35375 L32.29125,22.35375 L18.5775,22.35375 C18.25125,22.35375 18,22.09875 18,21.78375 L18,21.76875 L18,18.56625 C18,18.25125 18.25125,18 18.5775,18 L18.5775,18 Z" id="icon_statistics"></path>
                </g>
            </g>
        </g>
    </g>
</svg>