<?xml version="1.0" encoding="UTF-8"?>
<svg width="21px" height="17px" viewBox="0 0 21 17" version="1.1" xmlns="http://www.w3.org/2000/svg" xmlns:xlink="http://www.w3.org/1999/xlink">
    <!-- Generator: sketchtool 39.1 (31720) - http://www.bohemiancoding.com/sketch -->
    <title>DBE5E46D-6DCF-418A-9398-798E6627B161</title>
    <desc>Created with sketchtool.</desc>
    <defs></defs>
    <g id="Page-1" stroke="none" stroke-width="1" fill="none" fill-rule="evenodd">
        <g id="导航收起" transform="translate(-1301.000000, -27.000000)" fill="#D3DCE6">
            <g id="navbar">
                <g id="message" transform="translate(1287.000000, 5.000000)">
                    <path d="M32.3006245,22 L16.6143716,22 C15.5829606,22 14,22.8270788 14,23.8302682 L14,24.1932448 C14,24.1932448 22.8388454,31.4695418 24.4574396,31.4695418 C26.0762443,31.4695418 34.9148792,24.2162524 34.9148792,24.2162524 L34.9148792,23.8302682 C34.9148792,22.8270788 33.3320356,22 32.3006245,22 L32.3006245,22 Z M14,27.1286464 L14,37.4448141 C14,37.4448141 14.9702446,38.7319268 16.6143716,38.7319268 L32.3006245,38.7319268 C33.8630794,38.7319268 34.9148792,37.4448141 34.9148792,37.4448141 L34.9148792,27.0961225 C34.9148792,27.0961225 27.4767111,33.6329517 24.4574396,33.6329517 C21.4696398,33.6329517 14,27.1286464 14,27.1286464 L14,27.1286464 Z" id="icon_message"></path>
                </g>
            </g>
        </g>
    </g>
</svg>