<?xml version="1.0" encoding="UTF-8"?>
<svg width="15px" height="18px" viewBox="0 0 15 18" version="1.1" xmlns="http://www.w3.org/2000/svg" xmlns:xlink="http://www.w3.org/1999/xlink">
    <!-- Generator: sketchtool 39.1 (31720) - http://www.bohemiancoding.com/sketch -->
    <title>8FFEC061-0B65-42B2-A1F1-A50D7847EC14</title>
    <desc>Created with sketchtool.</desc>
    <defs></defs>
    <g id="Page-1" stroke="none" stroke-width="1" fill="none" fill-rule="evenodd">
        <g id="导航收起" transform="translate(-18.000000, -386.000000)" fill="#5C7DFE">
            <g id="Group" transform="translate(0.000000, 70.000000)">
                <g id="仪器管理" transform="translate(0.000000, 300.000000)">
                    <path d="M21.3947289,26.2120924 L21.3947289,26.2120924 L21.2313463,26.5025505 L22.1980271,27.0607747 L22.3568714,26.7793934 L21.3947289,26.2120924 Z M26.3915158,22.9217469 L26.3915158,22.9217469 C25.9921359,22.522367 25.3159132,22.5132902 24.9074565,22.9217469 L24.8983797,22.9217469 C24.7168434,23.11236 24.5988448,23.3755876 24.5988448,23.6615073 C24.5988448,24.2515003 25.0753776,24.7189563 25.6517553,24.7189563 C25.9422134,24.7189563 26.2099795,24.5964193 26.3915158,24.4103446 C26.5821289,24.2242699 26.7001275,23.9565038 26.7001275,23.6615073 C26.7001275,23.380126 26.5912057,23.1305136 26.4142078,22.9399005 L26.3915158,22.9217469 Z M26.2099795,21.8688363 L26.2099795,21.8688363 L26.8771254,20.7115423 C26.0465968,20.2304711 25.2160682,19.7539383 24.3855396,19.2774055 L21.0452715,25.0593369 C21.8758002,25.5358697 22.7063288,26.0169409 23.5413958,26.4934737 L24.3719244,25.0502601 C23.9906981,24.6781106 23.7637777,24.2015778 23.7637777,23.6615073 C23.7637777,23.1486673 23.9861597,22.6766729 24.3220019,22.3362923 L24.3220019,22.3362923 C24.834842,21.8234522 25.5292183,21.6827616 26.2099795,21.8688363 L26.2099795,21.8688363 Z M27.1448915,18.4877226 L27.1448915,18.4877226 C26.8181261,18.3016479 26.5004376,18.1155731 26.1782106,17.9294984 L25.5655256,19.0005626 L26.5322064,19.5587868 L27.1448915,18.4877226 Z M27.4535032,24.1970394 C27.9481896,24.7234947 28.3430311,25.3452566 28.6153355,26.0169409 C28.8785632,26.6840868 29.0328691,27.4193089 29.0328691,28.1862998 C29.0328691,29.7883577 28.3747999,31.2451865 27.3218894,32.2935587 C27.2084292,32.4024805 27.094969,32.5114023 26.972432,32.6157857 L31.5834542,32.6157857 C31.9737572,32.6157857 32.2778305,32.9243974 32.2778305,33.310162 C32.2778305,33.6913883 31.9737572,34 31.5834542,34 L18.6943764,34 C18.3086117,34 18,33.6913883 18,33.310162 C18,32.9243974 18.3086117,32.6157857 18.6943764,32.6157857 L23.1874,32.6157857 L23.2010152,32.6157857 C24.4309237,32.6157857 25.5382951,32.1210992 26.3461317,31.3178011 C26.4641303,31.1998025 26.5730521,31.0727271 26.6819739,30.9411132 L19.0211417,30.9411132 C18.7942213,30.9411132 18.6036082,30.7505001 18.6036082,30.5281181 C18.6036082,30.2966593 18.7942213,30.1105846 19.0211417,30.1105846 L27.1993524,30.1105846 C27.4898104,29.52513 27.6441163,28.8625225 27.6441163,28.1862998 C27.6441163,27.5963068 27.5351945,27.0335442 27.3309662,26.5343194 C27.1539683,26.0804786 26.895279,25.6629451 26.5821289,25.2998725 C26.3189013,25.4587168 25.9921359,25.5494849 25.6517553,25.5494849 C25.4566038,25.5494849 25.2659907,25.5131777 25.0844544,25.4587168 L24.045159,27.265003 C23.9407756,27.464693 23.677548,27.5327691 23.4869349,27.4193089 L23.0739398,27.1878501 L22.7017903,27.8413808 C22.5837917,28.0365323 22.3341793,28.1046084 22.129951,27.9911482 L20.4507401,27.0244674 C20.2555886,26.9064688 20.1875125,26.652318 20.3100495,26.452628 L20.6821989,25.7945589 L20.2782807,25.5676385 C20.0831291,25.4496399 20.0059762,25.1954891 20.1239748,25.0003376 L23.8726995,18.4967994 C23.9906981,18.3016479 24.2403105,18.2335717 24.4490773,18.3470319 L24.4626925,18.3606472 L24.8484572,18.5830291 L25.4611422,17.5119649 L25.0617623,17.2850445 C24.7259202,17.089893 24.6169984,16.6723595 24.8121499,16.3455942 C24.9982246,16.009752 25.4202965,15.9053686 25.7470619,16.0914433 C26.8181261,16.69959 27.8846519,17.3213518 28.9557161,17.9385752 C29.2870199,18.12465 29.4050185,18.5557987 29.2098669,18.882564 C29.0237922,19.2138678 28.5926435,19.3227896 28.2658782,19.1321765 L27.8619599,18.9007177 L27.2492748,19.9717819 L27.6486547,20.1987023 C27.8528831,20.3121625 27.9164208,20.5663133 27.7938838,20.7705416 L26.9270479,22.2863698 C27.3082741,22.6494424 27.5351945,23.135052 27.5351945,23.6615073 C27.5351945,23.8521204 27.5079641,24.0245799 27.4535032,24.1970394 L27.4535032,24.1970394 Z" id="icon_instrument"></path>
                </g>
            </g>
        </g>
    </g>
</svg>