<?xml version="1.0" encoding="UTF-8"?>
<svg width="17px" height="15px" viewBox="0 0 17 15" version="1.1" xmlns="http://www.w3.org/2000/svg" xmlns:xlink="http://www.w3.org/1999/xlink">
    <!-- Generator: sketchtool 39.1 (31720) - http://www.bohemiancoding.com/sketch -->
    <title>09D75BCA-358E-41EE-8698-BFAEFA01AA75</title>
    <desc>Created with sketchtool.</desc>
    <defs></defs>
    <g id="Page-1" stroke="none" stroke-width="1" fill="none" fill-rule="evenodd">
        <g id="导航收起" transform="translate(-17.000000, -288.000000)" fill="#5C7DFE">
            <g id="Group" transform="translate(0.000000, 70.000000)">
                <g id="我的任务" transform="translate(0.000000, 200.000000)">
                    <path d="M28.1615629,27.4117857 L28.1615629,27.4117857 L26.1639314,27.4117857 C25.9609201,27.4117857 25.798511,27.5713075 25.798511,27.7799129 L25.798511,29.7923416 L24.3205885,29.7923416 L24.3205885,27.7799129 C24.3205885,27.5713075 24.1541192,27.4117857 23.9470477,27.4117857 L21.9494162,27.4117857 L21.9494162,25.9229156 L23.9470477,25.9229156 C24.1541192,25.9229156 24.3205885,25.7511229 24.3205885,25.5466078 L24.3205885,23.5382694 L25.798511,23.5382694 L25.798511,25.5466078 C25.798511,25.7511229 25.9609201,25.9229156 26.1639314,25.9229156 L28.1615629,25.9229156 L28.1615629,27.4117857 Z M28.5351037,25.1703 L28.5351037,25.1703 L26.5374722,25.1703 L26.5374722,23.1660519 C26.5374722,22.9533561 26.371003,22.7856537 26.1639314,22.7856537 L23.9470477,22.7856537 C23.7440364,22.7856537 23.5816273,22.9533561 23.5816273,23.1660519 L23.5816273,25.1703 L21.5839958,25.1703 C21.3769243,25.1703 21.210455,25.3380024 21.210455,25.5466078 L21.210455,27.7799129 C21.210455,27.984428 21.3769243,28.1562207 21.5839958,28.1562207 L23.5816273,28.1562207 L23.5816273,30.1686495 C23.5816273,30.3731646 23.7440364,30.540867 23.9470477,30.540867 L26.1639314,30.540867 C26.371003,30.540867 26.5374722,30.3731646 26.5374722,30.1686495 L26.5374722,28.1562207 L28.5351037,28.1562207 C28.7462355,28.1562207 28.9086446,27.984428 28.9086446,27.7799129 L28.9086446,25.5466078 C28.9086446,25.3380024 28.7462355,25.1703 28.5351037,25.1703 L28.5351037,25.1703 Z M31.87261,30.8803621 L31.87261,30.8803621 C31.87261,31.3630177 31.4909487,31.7475062 31.0118419,31.7475062 L19.0991371,31.7475062 C18.6322111,31.7475062 18.2424293,31.3630177 18.2424293,30.8803621 L18.2424293,22.437978 C18.2424293,21.9594127 18.6281509,21.5790145 19.0991371,21.5790145 L31.0118419,21.5790145 C31.4909487,21.5790145 31.87261,21.9594127 31.87261,22.437978 L31.87261,30.8803621 Z M22.9116899,19.7751912 L22.9116899,19.7751912 C22.9116899,19.4929604 23.0253763,19.2393616 23.199966,19.0512077 L23.2080864,19.0512077 C23.3907966,18.8630538 23.6425307,18.7485253 23.9226863,18.7485253 L26.1964132,18.7485253 C26.4725086,18.7485253 26.7242427,18.8630538 26.9110131,19.0512077 C27.0937233,19.2393616 27.2114699,19.4929604 27.2114699,19.7751912 L27.2114699,20.327382 L22.9116899,20.327382 L22.9116899,19.7751912 Z M31.0118419,20.327382 L27.9463709,20.327382 L27.9463709,19.7751912 C27.9463709,19.2884452 27.75148,18.8466926 27.4307221,18.5235587 C27.1140244,18.2045151 26.6755199,18 26.1964132,18 L23.9226863,18 C23.4395194,18 22.9969547,18.2045151 22.6761968,18.5235587 C22.3635593,18.8466926 22.1564878,19.2884452 22.1564878,19.7751912 L22.1564878,20.327382 L19.0991371,20.327382 C17.950093,20.327382 17,21.2763322 17,22.437978 L17,30.8803621 C17,32.0460982 17.950093,32.9991387 19.0991371,32.9991387 L31.0118419,32.9991387 C32.1608861,32.9991387 33.1150393,32.0420079 33.1150393,30.8803621 L33.1150393,22.437978 C33.1150393,21.2845128 32.1608861,20.327382 31.0118419,20.327382 L31.0118419,20.327382 Z" id="icon_mytask"></path>
                </g>
            </g>
        </g>
    </g>
</svg>