<?xml version="1.0" encoding="UTF-8"?>
<svg width="10px" height="5px" viewBox="0 0 10 5" version="1.1" xmlns="http://www.w3.org/2000/svg" xmlns:xlink="http://www.w3.org/1999/xlink">
    <!-- Generator: sketchtool 39.1 (31720) - http://www.bohemiancoding.com/sketch -->
    <title>E011DD76-2B48-48D4-98D9-58B3CCDF24D6</title>
    <desc>Created with sketchtool.</desc>
    <defs></defs>
    <g id="Page-1" stroke="none" stroke-width="1" fill="none" fill-rule="evenodd">
        <g id="导航收起" transform="translate(-1250.000000, -34.000000)" fill="#A6ACB0">
            <g id="navbar">
                <path d="M1252.55479,36.7322276 C1252.45677,36.4943466 1252.48886,36.2032993 1252.66244,36.0120072 L1256.59769,31.6704193 C1256.81229,31.4338058 1257.15057,31.4450528 1257.35378,31.6949812 C1257.55662,31.9452832 1257.54732,32.3398748 1257.33273,32.5769153 L1253.80179,36.4731468 L1257.3188,40.4272008 C1257.53126,40.6663359 1257.53769,41.0609275 1257.33273,41.3091349 C1257.22791,41.4364139 1257.08785,41.5 1256.94772,41.5 C1256.81407,41.5 1256.68038,41.4418172 1256.57665,41.325385 L1252.67707,36.941344 C1252.66957,36.9326586 1252.66673,36.9205845 1252.65923,36.9114722 C1252.65351,36.9051749 1252.64748,36.9006254 1252.64177,36.8939546 C1252.61146,36.8569583 1252.59542,36.8116502 1252.57475,36.7692105 C1252.56905,36.7563225 1252.55978,36.7455425 1252.55479,36.7322276 Z" id="el-icon-arrow-down" transform="translate(1255.000000, 36.500000) scale(-1, 1) rotate(-90.000000) translate(-1255.000000, -36.500000) "></path>
            </g>
        </g>
    </g>
</svg>