<svg xmlns="http://www.w3.org/2000/svg" width="14" height="17" viewBox="0 0 14 17">
    <path fill-rule="evenodd" d="M7 2.594H3.04v1.172H10.959V2.594h-3.96zm4.692 1.204v.34a.373.373 0 0 1-.37.371H2.677a.374.374 0 0 1-.375-.371v-.34H1.226V15.19h11.543V3.8h-1.077zM8.584 1.855a1.72 1.72 0 0 0-.4-.614A1.658 1.658 0 0 0 7 .743c-.46 0-.89.19-1.185.498a1.609 1.609 0 0 0-.395.614h3.165zm-5.818 9.03H4.83a.378.378 0 0 0 .375-.318l.327-1.48 1.052 3.94c.06.194.262.316.456.263a.362.362 0 0 0 .258-.263l.83-3.09.186.674a.36.36 0 0 0 .346.275h2.577c.201 0 .37-.166.37-.372 0-.21-.169-.368-.37-.368H8.95l-.468-1.733a.362.362 0 0 0-.258-.263.374.374 0 0 0-.46.263l-.826 3.091-1.077-4.053a.374.374 0 0 0-.278-.267.37.37 0 0 0-.44.28l-.604 2.682H2.766a.366.366 0 0 0-.38.368c0 .206.166.372.38.372zM6.999 0c.666 0 1.274.279 1.714.715.302.311.532.7.649 1.14h1.96a.37.37 0 0 1 .37.367v.34h1.698a.62.62 0 0 1 .609.622v12.627c0 .336-.278.61-.61.61H.614a.612.612 0 0 1-.613-.61V3.185c0-.344.274-.623.613-.623h1.689v-.34a.37.37 0 0 1 .375-.367h1.976A2.421 2.421 0 0 1 6.999 0z"/>
</svg>
