<svg xmlns="http://www.w3.org/2000/svg" width="14" height="14" viewBox="0 0 14 14">
    <path fill="#5C7DFE" fill-rule="evenodd" d="M10.555 4.074L8.08 1.607V3.5c0 .154.06.287.161.392l.014.014a.546.546 0 0 0 .403.168h1.897zm2.012 4.641L10.191 6.34V7.427a.33.33 0 0 1-.326.326h-2.26v1.935h2.26c.179 0 .326.147.326.326v1.088l2.376-2.387zM10.09 5.338l.01.007 3.147 3.146c.13.13.13.33 0 .455l-3.157 3.15a.309.309 0 0 1-.444 0 .286.286 0 0 1-.098-.22v-1.54H7.279a.321.321 0 0 1-.322-.322V7.427a.32.32 0 0 1 .322-.318h2.267v-1.54c0-.175.14-.326.32-.326.083 0 .17.046.223.095zM1.43 0h6.328c.154 0 .28.06.382.15l3.87 3.872a.52.52 0 0 1 .151.374v.875a.529.529 0 0 1-.528.532.53.53 0 0 1-.536-.532v-.553h-2.44c-.335 0-.643-.136-.857-.364l-.014-.01a1.2 1.2 0 0 1-.343-.844V1.068H1.43a.373.373 0 0 0-.252.101.36.36 0 0 0-.105.26v11.038c0 .102.035.193.105.252a.352.352 0 0 0 .252.112h9.307a.387.387 0 0 0 .255-.112c.06-.06.105-.15.105-.252v-.304a.532.532 0 1 1 1.064 0v.304c0 .392-.157.753-.42 1.012l-.01.014a1.433 1.433 0 0 1-.994.406H1.43c-.392 0-.742-.172-1.011-.42a1.447 1.447 0 0 1-.42-1.012V1.428c0-.395.164-.752.42-1.015A1.42 1.42 0 0 1 1.43 0z"/>
</svg>
