<svg xmlns="http://www.w3.org/2000/svg" width="19" height="17" viewBox="0 0 19 17">
    <path fill="#5C7DFE" fill-rule="evenodd" d="M2.914 7.854l4.627 2.283L8.958 7.63 2.969 4.676 1.55 7.174l1.259.625a.626.626 0 0 1 .106.055zm13.121-3.186L10.034 7.63l1.42 2.506 6.002-2.963-1.421-2.506zm-6.15 4.285v6.166l5.89-2.904V8.857l-4.282 2.115-.009.009a.402.402 0 0 1-.536-.156L9.885 8.953zm0-7.412v5.305l5.376-2.648L9.885 1.54zM9.11 6.846V1.541L3.73 4.198l5.38 2.648zm0 8.273V8.945l-1.068 1.88a.399.399 0 0 1-.531.156v-.009L3.22 8.861v3.354l5.89 2.904zm7.6-11.639c.12.063.213.151.277.252l1.926 3.404a.623.623 0 0 1-.242.86.413.413 0 0 1-.077.046l-1.522.748v3.819a.64.64 0 0 1-.413.596l-6.873 3.391a.666.666 0 0 1-.578 0L2.284 13.18a.652.652 0 0 1-.357-.571l-.004-3.82-1.57-.772a.626.626 0 0 1-.28-.856l1.93-3.43a.732.732 0 0 1 .32-.272L9.209.068a.652.652 0 0 1 .578 0l6.924 3.412z"/>
</svg>
