<svg xmlns="http://www.w3.org/2000/svg" width="16" height="16" viewBox="0 0 16 16">
    <path fill-rule="evenodd" d="M7.945 7.779c2.004-1.076 4.028-2.16 6.04-3.236l-6.04-3.244-6.052 3.244c2.016 1.076 4.032 2.16 6.052 3.236zm0 3.424c2.004-1.068 4.028-2.164 6.04-3.24l-1.908-1.02-3.848 2.068c-.068.028-.136.056-.2.064l-.016.008H7.86l-.012-.008c-.072-.008-.132-.036-.196-.064L3.797 6.943l-1.904 1.02c2.016 1.076 4.032 2.164 6.052 3.24zm6.04.18l-1.908-1.02-3.848 2.072c-.068.032-.136.048-.2.068l-.016.008H7.86l-.012-.008c-.072-.02-.132-.036-.196-.068l-3.856-2.072-1.904 1.02 6.052 3.244 6.04-3.244zm-.624-1.708l2.196 1.18c.3.152.408.524.256.824a.624.624 0 0 1-.256.244l-7.328 3.936a.612.612 0 0 1-.576 0L.317 11.923a.616.616 0 0 1-.248-.824.58.58 0 0 1 .248-.244l2.192-1.18L.317 8.503a.618.618 0 0 1-.248-.824.682.682 0 0 1 .248-.252l2.192-1.168L.317 5.075a.615.615 0 0 1-.248-.824.7.7 0 0 1 .248-.248L7.653.075a.59.59 0 0 1 .576 0l7.328 3.928c.3.16.408.528.256.828a.577.577 0 0 1-.256.244L13.36 6.259l2.196 1.168c.3.156.408.528.256.824a.62.62 0 0 1-.256.252L13.36 9.675z"/>
</svg>
