<svg xmlns="http://www.w3.org/2000/svg" width="15" height="18" viewBox="0 0 15 18">
    <path fill="#5C7DFE" fill-rule="evenodd" d="M3.395 10.212l-.164.29.967.559.159-.282-.962-.567zm4.997-3.29a1.06 1.06 0 0 0-1.485 0h-.009c-.181.19-.3.454-.3.74 0 .59.477 1.057 1.054 1.057.29 0 .558-.123.74-.309.19-.186.308-.453.308-.748 0-.282-.109-.531-.286-.722l-.022-.018zM8.21 5.869l.667-1.157c-.83-.482-1.66-.958-2.491-1.435L3.046 9.06c.83.477 1.66.958 2.495 1.434l.83-1.443c-.38-.372-.607-.848-.607-1.388 0-.513.222-.985.558-1.326.513-.513 1.207-.653 1.888-.467zm.935-3.381c-.327-.186-.645-.372-.967-.559l-.612 1.072.966.558.613-1.071zm.309 5.709a5.9 5.9 0 0 1 1.161 1.82c.264.667.418 1.402.418 2.17a5.79 5.79 0 0 1-2.06 4.429h4.61c.39 0 .695.308.695.694 0 .381-.304.69-.695.69H.694a.691.691 0 1 1 0-1.384H5.201a4.439 4.439 0 0 0 3.481-1.675h-7.66a.421.421 0 0 1-.418-.413.42.42 0 0 1 .417-.417H9.2c.29-.586.445-1.248.445-1.925A4.37 4.37 0 0 0 8.582 9.3c-.263.159-.59.25-.93.25-.195 0-.386-.037-.568-.091l-1.039 1.806a.405.405 0 0 1-.558.154l-.413-.231-.372.653a.424.424 0 0 1-.572.15l-1.68-.967a.414.414 0 0 1-.14-.571l.372-.658-.404-.227c-.195-.118-.272-.373-.154-.568l3.749-6.503a.428.428 0 0 1 .576-.15l.014.014.385.222.613-1.071-.4-.227a.678.678 0 0 1-.249-.94.68.68 0 0 1 .935-.254C8.818.7 9.885 1.321 10.956 1.94a.69.69 0 1 1-.69 1.194L9.862 2.9l-.613 1.07.4.228a.406.406 0 0 1 .145.572l-.867 1.515c.381.363.608.85.608 1.376 0 .19-.027.363-.081.535z"/>
</svg>
