<svg xmlns="http://www.w3.org/2000/svg" width="15" height="15" viewBox="0 0 15 15">
    <path fill-rule="evenodd" d="M3.297 11.484a.358.358 0 0 0-.25-.106.355.355 0 0 0-.347.351c0 .095.042.182.102.246.06.06.147.098.246.098a.368.368 0 0 0 .249-.098.362.362 0 0 0 .102-.245.355.355 0 0 0-.102-.246m0-4.46a.342.342 0 0 0-.25-.106.322.322 0 0 0-.245.106.341.341 0 0 0-.102.246.348.348 0 0 0 .347.347.371.371 0 0 0 .25-.102.355.355 0 0 0 .102-.245.341.341 0 0 0-.102-.246m-.25-.793A1.03 1.03 0 0 1 4.09 7.27c0 .283-.112.543-.301.74a1.048 1.048 0 0 1-.74.298c-.291 0-.548-.11-.737-.298a1.065 1.065 0 0 1-.302-.74A1.03 1.03 0 0 1 3.048 6.23m.249-3.67a.371.371 0 0 0-.25-.103.348.348 0 0 0-.347.348c0 .102.042.196.102.245v.008c.06.06.147.098.246.098a.368.368 0 0 0 .249-.098V3.05a.322.322 0 0 0 .102-.245.362.362 0 0 0-.102-.246m-.25-.789c.284 0 .552.11.74.298v.008c.19.189.303.45.303.729 0 .29-.113.547-.302.733a1.024 1.024 0 0 1-1.477 0 1.014 1.014 0 0 1-.302-.733c0-.28.113-.54.302-.729v-.008c.189-.188.446-.298.737-.298m10.173 8.305H1.78a.619.619 0 0 0-.423.177l-.02.015a.642.642 0 0 0-.177.442v2.028c0 .181.065.328.17.442l.008.015a.69.69 0 0 0 .457.189h11.42a.665.665 0 0 0 .438-.178l.007-.011a.658.658 0 0 0 .185-.457V10.71a.636.636 0 0 0-.177-.438l-.008-.004a.627.627 0 0 0-.438-.192m0-4.468H1.78a.682.682 0 0 0-.423.185l-.02.008a.693.693 0 0 0-.177.453v2.031c0 .163.065.325.17.442l.008.004a.666.666 0 0 0 .442.189H13.22a.66.66 0 0 0 .43-.181l.008-.008a.652.652 0 0 0 .185-.446V6.254a.655.655 0 0 0-.177-.446l-.008-.007a.698.698 0 0 0-.438-.193m-.007-4.452H1.794a.672.672 0 0 0-.438.177l-.02.008a.702.702 0 0 0-.177.457v2.028c0 .17.065.328.17.441l.008.012c.117.11.268.177.442.189H13.22a.679.679 0 0 0 .43-.182l.008-.007a.649.649 0 0 0 .185-.453V1.798a.672.672 0 0 0-.177-.45l-.008-.007a.662.662 0 0 0-.445-.185M1.794 0h11.42c.49 0 .933.204 1.254.54h.007c.325.317.525.767.525 1.258v2.028c0 .464-.181.895-.476 1.212.295.325.476.747.476 1.216v2.031c0 .457-.181.896-.476 1.209.295.325.476.759.476 1.216v2.028c0 .495-.2.94-.525 1.265h-.007c-.321.329-.77.532-1.254.532H1.794c-.491 0-.937-.203-1.265-.532H.525A1.797 1.797 0 0 1 0 12.738V10.71c0-.457.185-.891.48-1.216A1.786 1.786 0 0 1 0 8.285V6.254c0-.469.185-.891.48-1.216A1.788 1.788 0 0 1 0 3.826V1.798C0 1.307.204.858.525.54h.004C.857.204 1.303 0 1.794 0m1.254 10.687c.283 0 .55.114.74.302a1.045 1.045 0 0 1-.74 1.78c-.291 0-.548-.114-.737-.307a1.045 1.045 0 0 1 0-1.473 1.03 1.03 0 0 1 .737-.302"/>
</svg>
